<?xml version="1.0" standalone="no"?>
<!DOCTYPE svg PUBLIC "-//W3C//DTD SVG 20010904//EN"
 "http://www.w3.org/TR/2001/REC-SVG-20010904/DTD/svg10.dtd">
<svg version="1.0" xmlns="http://www.w3.org/2000/svg"
 width="700.000000pt" height="700.000000pt" viewBox="0 0 700.000000 700.000000"
 preserveAspectRatio="xMidYMid meet">

<g transform="translate(0.000000,700.000000) scale(0.100000,-0.100000)"
fill="#000000" stroke="none">
<path d="M1120 4634 c-109 -12 -160 -24 -265 -60 -113 -39 -143 -55 -237 -123
-91 -65 -119 -93 -186 -182 -67 -88 -87 -123 -125 -224 -40 -104 -48 -139 -61
-260 -14 -125 -14 -155 0 -280 13 -120 22 -158 61 -265 41 -109 57 -138 125
-226 190 -248 470 -362 890 -364 54 0 148 7 210 16 117 16 375 78 463 111 l50
19 0 474 0 475 -442 3 -443 2 0 -185 0 -185 190 0 190 0 0 -190 0 -190 -77 0
c-443 1 -670 185 -705 575 -33 350 110 598 397 688 58 18 93 22 210 22 132 -1
145 -2 235 -33 111 -39 182 -77 300 -161 55 -39 95 -61 112 -61 l28 0 0 224 0
224 -92 40 c-258 112 -525 150 -828 116z"/>
<path d="M4070 3975 l0 -95 135 0 135 0 0 95 0 95 -135 0 -135 0 0 -95z"/>
<path d="M4580 3515 l0 -555 125 0 125 0 0 555 0 555 -125 0 -125 0 0 -555z"/>
<path d="M6100 3875 l0 -115 -55 0 -55 0 0 -85 0 -85 54 0 55 0 3 -237 c3
-231 4 -240 28 -288 27 -54 69 -88 134 -107 46 -14 241 -17 299 -5 l37 8 0 89
c0 50 -3 90 -7 90 -5 0 -30 -7 -58 -15 -67 -21 -117 -12 -150 27 -25 29 -25
30 -25 234 l0 204 120 0 120 0 0 85 0 85 -120 0 -120 0 0 115 0 115 -130 0
-130 0 0 -115z"/>
<path d="M3460 3764 c-24 -9 -68 -32 -97 -50 -30 -19 -56 -34 -58 -34 -3 0 -5
18 -5 40 l0 40 -125 0 -125 0 0 -550 0 -550 125 0 125 0 0 165 c0 91 4 165 9
165 5 0 30 -9 56 -21 65 -29 176 -36 247 -15 171 49 269 203 269 421 -1 187
-59 313 -174 371 -64 33 -183 41 -247 18z m46 -185 c80 -20 114 -85 114 -215
0 -110 -35 -185 -103 -221 -37 -19 -189 -25 -207 -7 -7 7 -10 78 -8 210 l3
199 30 14 c63 30 108 36 171 20z"/>
<path d="M5333 3770 c-207 -44 -328 -224 -309 -460 14 -180 103 -297 265 -351
91 -31 258 -31 346 0 113 40 193 118 236 228 32 84 31 253 -1 338 -43 114
-110 182 -221 225 -61 24 -244 36 -316 20z m217 -188 c14 -11 36 -39 50 -63
23 -40 25 -54 25 -164 0 -110 -2 -124 -25 -164 -56 -98 -206 -110 -269 -22
-32 45 -41 85 -42 184 0 140 39 222 117 247 40 13 114 3 144 -18z"/>
<path d="M4070 3360 l0 -400 130 0 130 0 0 400 0 400 -130 0 -130 0 0 -400z"/>
<path d="M2300 3430 l0 -100 275 0 275 0 0 100 0 100 -275 0 -275 0 0 -100z"/>
</g>
</svg>
